<svg width="22" height="25" viewBox="0 0 22 25" fill="none" xmlns="http://www.w3.org/2000/svg">
<path d="M1 23.4V1H10.696C12.7013 1 14.4293 1.33067 15.88 1.992C17.3307 2.632 18.4507 3.56 19.24 4.776C20.0293 5.992 20.424 7.44267 20.424 9.128C20.424 10.792 20.0293 12.232 19.24 13.448C18.4507 14.664 17.3307 15.6027 15.88 16.264C14.4293 16.904 12.7013 17.224 10.696 17.224H3.88L6.184 14.888V23.4H1ZM6.184 15.464L3.88 13H10.408C12.008 13 13.2027 12.6587 13.992 11.976C14.7813 11.2933 15.176 10.344 15.176 9.128C15.176 7.89067 14.7813 6.93067 13.992 6.248C13.2027 5.56533 12.008 5.224 10.408 5.224H3.88L6.184 2.76V15.464Z" fill="white"/>
<path fill-rule="evenodd" clip-rule="evenodd" d="M0 24.4V0H10.696C12.8063 0 14.6806 0.347354 16.2892 1.07955C17.8979 1.79037 19.1747 2.83874 20.0788 4.23153C20.9895 5.6346 21.424 7.28151 21.424 9.128C21.424 10.956 20.9882 12.5914 20.0788 13.9925C19.1756 15.3839 17.9008 16.4418 16.2948 17.1739L16.2837 17.179C14.6769 17.8878 12.8048 18.224 10.696 18.224H7.184V24.4H0ZM6.184 17.224H10.696C12.7013 17.224 14.4293 16.904 15.88 16.264C17.3307 15.6027 18.4507 14.664 19.24 13.448C20.0293 12.232 20.424 10.792 20.424 9.128C20.424 7.44267 20.0293 5.992 19.24 4.776C18.4507 3.56 17.3307 2.632 15.88 1.992C14.4293 1.33067 12.7013 1 10.696 1H1V23.4H6.184V17.224ZM6.184 5.224V13H10.408C12.008 13 13.2027 12.6587 13.992 11.976C14.7813 11.2933 15.176 10.344 15.176 9.128C15.176 7.89067 14.7813 6.93067 13.992 6.248C13.2027 5.56533 12.008 5.224 10.408 5.224H6.184ZM7.184 12H10.408C11.8906 12 12.8055 11.6801 13.3378 11.2196C13.8704 10.7591 14.176 10.1067 14.176 9.128C14.176 8.12173 13.8663 7.46144 13.3378 7.00436C12.8055 6.54394 11.8906 6.224 10.408 6.224H7.184V12Z" fill="#222222"/>
</svg>
